<svg width="26" height="26" viewBox="0 0 26 26" fill="none" xmlns="http://www.w3.org/2000/svg">
<path d="M17.6336 9.63355L17.6398 9.62732L17.6458 9.62086C17.8666 9.3839 17.9868 9.07049 17.9811 8.74666C17.9754 8.42282 17.8442 8.11385 17.6152 7.88483C17.3862 7.6558 17.0772 7.52462 16.7533 7.5189C16.4295 7.51319 16.1161 7.63339 15.8791 7.8542L15.8727 7.86021L15.8664 7.86645L12.75 10.9829L9.63355 7.86645L9.62732 7.86021L9.62086 7.8542C9.3839 7.6334 9.07049 7.51319 8.74666 7.5189C8.42282 7.52462 8.11385 7.6558 7.88483 7.88483C7.6558 8.11385 7.52462 8.42282 7.5189 8.74666C7.51319 9.07049 7.6334 9.3839 7.8542 9.62086L7.86021 9.62732L7.86645 9.63355L10.9829 12.75L7.86645 15.8664L7.86021 15.8727L7.8542 15.8791C7.63339 16.1161 7.51319 16.4295 7.5189 16.7533C7.52462 17.0772 7.6558 17.3862 7.88483 17.6152C8.11385 17.8442 8.42282 17.9754 8.74666 17.9811C9.07049 17.9868 9.3839 17.8666 9.62086 17.6458L9.62732 17.6398L9.63355 17.6336L12.75 14.5171L15.861 17.6281C15.9741 17.7476 16.1097 17.8435 16.26 17.9105C16.4133 17.9788 16.5788 18.0156 16.7467 18.0185C16.9145 18.0215 17.0812 17.9906 17.2369 17.9277C17.3925 17.8649 17.5339 17.7713 17.6526 17.6526C17.7713 17.5339 17.8649 17.3925 17.9277 17.2369C17.9906 17.0812 18.0215 16.9145 18.0185 16.7467C18.0156 16.5788 17.9788 16.4133 17.9105 16.26C17.8435 16.1097 17.7476 15.9741 17.6281 15.861L14.5171 12.75L17.6336 9.63355ZM22.75 0.5H2.75C2.15326 0.5 1.58097 0.737053 1.15901 1.15901C0.737053 1.58097 0.5 2.15326 0.5 2.75V22.75C0.5 23.3467 0.737053 23.919 1.15901 24.341C1.58097 24.7629 2.15326 25 2.75 25H22.75C23.3467 25 23.919 24.7629 24.341 24.341C24.7629 23.919 25 23.3467 25 22.75V2.75C25 2.15326 24.7629 1.58097 24.341 1.15901C23.919 0.737053 23.3467 0.5 22.75 0.5ZM22.5 3V22.5H3V3H22.5Z" fill="#33499F" stroke="#33499F"/>
</svg>
