<svg width="22" height="22" viewBox="0 0 22 22" fill="none" xmlns="http://www.w3.org/2000/svg">
<path d="M22.0005 9.53355V18.3338C22.0005 19.3062 21.6142 20.2389 20.9265 20.9265C20.2389 21.6142 19.3062 22.0005 18.3338 22.0005H3.66675C3.18523 22.0005 2.70842 21.9057 2.26355 21.7214C1.81868 21.5371 1.41446 21.267 1.07397 20.9265C0.386317 20.2389 0 19.3062 0 18.3338V3.66675C0 2.69427 0.386317 1.76162 1.07397 1.07397C1.76162 0.386317 2.69427 0 3.66675 0H12.467C12.6614 0 12.848 0.0772634 12.9855 0.214793C13.123 0.352323 13.2003 0.538854 13.2003 0.73335C13.2003 0.927847 13.123 1.11438 12.9855 1.25191C12.848 1.38944 12.6614 1.4667 12.467 1.4667H3.66675C3.08326 1.4667 2.52367 1.69849 2.11108 2.11108C1.69849 2.52367 1.4667 3.08326 1.4667 3.66675V18.3338C1.4667 18.9172 1.69849 19.4768 2.11108 19.8894C2.52367 20.302 3.08326 20.5338 3.66675 20.5338H18.3338C18.9172 20.5338 19.4768 20.302 19.8894 19.8894C20.302 19.4768 20.5338 18.9172 20.5338 18.3338V9.53355C20.5338 9.33906 20.6111 9.15252 20.7486 9.015C20.8861 8.87747 21.0727 8.8002 21.2672 8.8002C21.4617 8.8002 21.6482 8.87747 21.7857 9.015C21.9232 9.15252 22.0005 9.33906 22.0005 9.53355ZM6.46082 11.4549L17.3877 0.528012C17.7327 0.199375 18.191 0.0160638 18.6674 0.0160638C19.1439 0.0160638 19.6021 0.199375 19.9471 0.528012L21.4725 2.05338C21.8115 2.39299 22.0019 2.85323 22.0019 3.33308C22.0019 3.81292 21.8115 4.27317 21.4725 4.61277L10.5456 15.5397C10.4284 15.6546 10.276 15.7269 10.1129 15.745L6.68082 16.1337H6.60015C6.49667 16.1343 6.39422 16.1131 6.29955 16.0713C6.20487 16.0295 6.12012 15.9681 6.05085 15.8912C5.98158 15.8143 5.92937 15.7237 5.89765 15.6252C5.86593 15.5266 5.85542 15.4225 5.8668 15.3197L6.24814 11.8876C6.26825 11.7235 6.34319 11.5711 6.46082 11.4549ZM18.4218 1.56937L17.4464 2.53739L19.4631 4.5541L20.4311 3.57875C20.4645 3.54786 20.491 3.51042 20.5092 3.46877C20.5274 3.42713 20.5368 3.38218 20.5368 3.33674C20.5368 3.29131 20.5274 3.24636 20.5092 3.20471C20.491 3.16307 20.4645 3.12563 20.4311 3.09474L18.9058 1.56937C18.8743 1.53699 18.8367 1.51125 18.7951 1.49368C18.7536 1.4761 18.7089 1.46704 18.6638 1.46704C18.6186 1.46704 18.574 1.4761 18.5324 1.49368C18.4908 1.51125 18.4532 1.53699 18.4218 1.56937ZM7.4215 14.5717L9.68756 14.3223L18.4218 5.58813L16.4124 3.57875L7.67818 12.3056L7.4215 14.5717Z" fill="#33499F"/>
</svg>
